<?xml version="1.0" encoding="UTF-8"?>
<svg id="_Слой_2" data-name="Слой 2" xmlns="http://www.w3.org/2000/svg" viewBox="0 0 141.5 124.55">
  <defs>
    <style>
      .cls-1 {
        fill: #fff;
        fill-rule: evenodd;
        stroke-width: 0px;
      }
    </style>
  </defs>
  <g id="_Слой_1-2" data-name="Слой 1">
    <path class="cls-1" d="M138.73,109.42c-4.99-6.3-14.61-18.43-10.25-47.83,2.43-28.44-8.26-44.25-26.3-53.83-3.68-2.83-7.42-5.42-11.21-7.76H24C10.75,0,0,10.74,0,24v86c0,2.74.46,5.38,1.31,7.83,6.55,2.86,13.47,4.98,20.35,6.1,13.74,2.25,29.28-2.14,44.38-6.41,12.11-3.42,23.94-6.77,34.33-6.54,16.71.54,25.07,2.94,30.45,4.48,3.75,1.08,6.04,1.73,8.7,1.05,3.36-1.88,2.02-3.58-.78-7.1ZM82.61,89.52h-50.14v-14.94h17.54v-37.42c-.74.99-1.91,2-3.52,3.03-1.61,1.03-3.36,2-5.25,2.9-1.9.91-3.85,1.65-5.87,2.22-2.02.58-3.81.87-5.37.87v-15.44c1.48,0,3.29-.47,5.43-1.42,2.14-.95,4.24-2.08,6.3-3.4,2.06-1.32,3.85-2.61,5.37-3.89,1.52-1.28,2.49-2.29,2.9-3.03h16.92v55.58h15.69v14.94Z"/>
  </g>
</svg>