<svg width="139" height="156" viewBox="0 0 139 156" fill="none" xmlns="http://www.w3.org/2000/svg">
<path fill-rule="evenodd" clip-rule="evenodd" d="M0 8.64886V142.143C22.9507 155.541 51.0733 160.261 76.3373 149.418C110.054 132.404 123.891 137.56 131.479 140.388C134.365 141.463 136.347 142.201 138.175 141.256C140.414 138.359 137.155 133.123 132.775 126.088C127.88 118.224 121.584 108.111 120.001 96.5C118.712 87.0399 118.993 81.3704 119.256 76.0724C119.605 69.0497 119.921 62.6799 116.503 49.0001C104 -1.03848 42.2662 -8.01922 0 8.64886ZM97.1239 103.48V118H48.4039V103.48H65.4439V67.12C64.7239 68.08 63.5639 69.08 61.9639 70.12C60.4439 71.08 58.7639 72 56.9239 72.88C55.0839 73.76 53.1639 74.48 51.1639 75.04C49.2439 75.6 47.5239 75.88 46.0039 75.88V60.88C47.4439 60.88 49.2039 60.44 51.2839 59.56C53.3639 58.6 55.4039 57.48 57.4039 56.2C59.4039 54.92 61.1239 53.68 62.5639 52.48C64.0839 51.2 65.0439 50.2 65.4439 49.48H81.8839V103.48H97.1239Z" fill="white"/>
</svg>
