<?xml version="1.0" encoding="UTF-8"?>
<svg id="_Слой_2" data-name="Слой 2" xmlns="http://www.w3.org/2000/svg" viewBox="0 0 143.31 154.87">
  <defs>
    <style>
      .cls-1 {
        fill: #fff;
        fill-rule: evenodd;
        stroke-width: 0px;
      }
    </style>
  </defs>
  <g id="_Слой_1-2" data-name="Слой 1">
    <path class="cls-1" d="M142.93,69.35c-32.39,4.12-20.98,1.1-26.43-20.89C104-1.58,42.27-8.56,0,8.11v133.49c22.95,13.4,51.07,18.12,76.34,7.27,33.72-17.01,37.19-64.25,47.6-65.68,14.84-1.07,21.04-14.11,18.99-13.85ZM86.07,108H26.54c0-3.71.29-7.06.86-10.07.58-3,1.58-5.78,3.03-8.34,1.44-2.55,3.42-4.94,5.93-7.16,2.51-2.22,5.7-4.4,9.57-6.55,3.38-1.81,6.36-3.4,8.95-4.75,2.59-1.36,4.75-2.61,6.48-3.77,1.73-1.15,3.04-2.33,3.95-3.52.9-1.19,1.36-2.57,1.36-4.14,0-2.47-.99-4.59-2.96-6.36-1.98-1.77-4.82-2.66-8.52-2.66-1.98,0-3.79.27-5.43.8-1.65.54-3.19,1.26-4.63,2.16-1.44.91-2.76,1.91-3.95,3.03-1.19,1.11-2.29,2.29-3.27,3.52l-10.62-12.23c1.07-1.15,2.59-2.41,4.57-3.77s4.3-2.63,6.98-3.83c2.67-1.19,5.64-2.18,8.89-2.96,3.25-.78,6.73-1.17,10.44-1.17,4.2,0,7.94.51,11.24,1.54,3.29,1.03,6.07,2.47,8.34,4.32,2.26,1.85,3.99,4.08,5.19,6.67,1.19,2.59,1.79,5.42,1.79,8.46,0,2.88-.54,5.43-1.61,7.66-1.07,2.22-2.43,4.2-4.08,5.93-1.65,1.73-3.44,3.23-5.37,4.51-1.94,1.28-3.81,2.41-5.62,3.4-1.48.82-3.17,1.77-5.06,2.84-1.9,1.07-3.77,2.24-5.62,3.52-1.85,1.28-3.56,2.59-5.13,3.95-1.56,1.36-2.76,2.7-3.58,4.01h37.42v14.94Z"/>
  </g>
</svg>