<svg width="143" height="125" viewBox="0 0 143 125" fill="none" xmlns="http://www.w3.org/2000/svg">
<path fill-rule="evenodd" clip-rule="evenodd" d="M2.30405 7.16491C1.45642 9.62033 0.996094 12.2563 0.996094 14.9998V101C0.996094 114.255 11.7413 125 24.9961 125H91.9759C95.764 122.663 99.5084 120.075 103.188 117.244C121.22 107.667 131.915 91.8596 129.484 63.415C125.125 34.008 134.739 21.8789 139.731 15.5813C142.525 12.0563 143.871 10.3584 140.507 8.48024C137.851 7.79783 135.557 8.45571 131.806 9.53129C126.431 11.0726 118.065 13.4717 101.358 14.0136C90.9674 14.24 79.1402 10.897 67.0308 7.4741C51.9318 3.20621 36.3939 -1.18575 22.6543 1.06297C15.7753 2.18885 8.85075 4.30086 2.30405 7.16491ZM45.5574 93C45.5574 89.4 45.8374 86.16 46.3974 83.28C46.9574 80.4 47.9174 77.72 49.2774 75.24C50.7174 72.76 52.6374 70.44 55.0374 68.28C57.5174 66.04 60.6374 63.88 64.3974 61.8C67.6774 60.04 70.5574 58.52 73.0374 57.24C75.5174 55.88 77.5974 54.64 79.2774 53.52C81.0374 52.4 82.3574 51.28 83.2374 50.16C84.1174 48.96 84.5574 47.6 84.5574 46.08C84.5574 44.48 84.1174 43.04 83.2374 41.76C82.3574 40.4 81.1174 39.32 79.5174 38.52C77.9174 37.72 75.9174 37.32 73.5174 37.32C71.5974 37.32 69.7974 37.56 68.1174 38.04C66.5174 38.52 64.9974 39.2 63.5574 40.08C62.1974 40.96 60.9174 41.96 59.7174 43.08C58.5174 44.12 57.4374 45.24 56.4774 46.44L46.2774 34.68C47.3974 33.56 48.8774 32.36 50.7174 31.08C52.6374 29.72 54.8774 28.48 57.4374 27.36C60.0774 26.16 62.9574 25.2 66.0774 24.48C69.2774 23.68 72.6774 23.28 76.2774 23.28C81.7174 23.28 86.3574 24.16 90.1974 25.92C94.0374 27.6 96.9574 29.96 98.9574 33C101.037 36.04 102.077 39.6 102.077 43.68C102.077 46.48 101.557 48.96 100.517 51.12C99.4774 53.28 98.1574 55.2 96.5574 56.88C94.9574 58.48 93.1974 59.92 91.2774 61.2C89.4374 62.48 87.6374 63.6 85.8774 64.56C83.3974 65.84 81.1574 67.04 79.1574 68.16C77.1574 69.2 75.3974 70.28 73.8774 71.4C72.3574 72.44 70.9974 73.52 69.7974 74.64C68.6774 75.76 67.6774 77.04 66.7974 78.48H103.397V93H45.5574Z" fill="white"/>
</svg>
