<?xml version="1.0" encoding="UTF-8"?>
<svg id="_Слой_2" data-name="Слой 2" xmlns="http://www.w3.org/2000/svg" viewBox="0 0 141.5 124.54">
  <defs>
    <style>
      .cls-1 {
        fill: #fff;
        fill-rule: evenodd;
        stroke-width: 0px;
      }
    </style>
  </defs>
  <g id="_Слой_1-2" data-name="Слой 1">
    <path class="cls-1" d="M139.51,8.02c-2.65-.68-4.95-.02-8.7,1.05-5.37,1.55-13.74,3.95-30.45,4.49-10.39.22-22.21-3.12-34.32-6.54C50.94,2.75,35.4-1.64,21.66.61,14.78,1.73,7.86,3.84,1.31,6.71c-.85,2.45-1.31,5.09-1.31,7.83v86c0,13.26,10.75,24,24,24h66.98c3.79-2.33,7.53-4.92,11.21-7.75,18.03-9.58,28.73-25.39,26.3-53.83-4.36-29.41,5.25-41.54,10.25-47.84,2.79-3.52,4.14-5.22.77-7.1ZM84.41,98.21c-1.52,3.13-3.66,5.78-6.42,7.97-2.76,2.18-6.11,3.87-10.07,5.06-3.95,1.19-8.4,1.79-13.34,1.79-6.26,0-11.79-1.01-16.61-3.03-4.82-2.02-8.83-4.96-12.04-8.83l9.39-11.73c2.14,2.72,4.69,4.82,7.66,6.3,2.96,1.48,6.67,2.22,11.12,2.22,5.02,0,8.85-.99,11.49-2.96,2.63-1.98,3.95-5.02,3.95-9.14s-1.52-7.57-4.57-9.88c-3.05-2.3-7.66-3.46-13.83-3.46h-3.46v-12.35h3.83c5.1,0,9.06-1.13,11.86-3.4,2.8-2.26,4.2-5.17,4.2-8.71s-1.15-5.89-3.46-7.53c-2.31-1.65-5.31-2.47-9.02-2.47s-7.18.86-10.19,2.59c-3.01,1.73-5.46,4.16-7.35,7.29l-10.37-11.61c1.23-1.89,2.88-3.6,4.94-5.12,2.06-1.52,4.38-2.84,6.98-3.95,2.59-1.11,5.41-1.98,8.46-2.59,3.05-.62,6.18-.93,9.39-.93,4.2,0,8.03.54,11.49,1.61,3.46,1.07,6.44,2.55,8.95,4.45,2.51,1.9,4.45,4.18,5.8,6.85,1.36,2.68,2.04,5.66,2.04,8.95,0,2.47-.37,4.82-1.11,7.04-.74,2.22-1.81,4.24-3.21,6.05-1.4,1.81-3.07,3.33-5,4.57-1.94,1.24-4.06,2.06-6.36,2.47,5.1.91,9.24,3.36,12.41,7.35,3.17,4,4.75,8.87,4.75,14.64,0,3.87-.76,7.37-2.28,10.5Z"/>
  </g>
</svg>