<svg width="170px" height="151px" viewBox="0 0 170 151" version="1.1" xmlns="http://www.w3.org/2000/svg" xmlns:xlink="http://www.w3.org/1999/xlink">
    <defs>
        <filter x="-41.2%" y="-38.8%" width="182.3%" height="197.0%" filterUnits="objectBoundingBox" id="filter">
            <feOffset dx="0" dy="9.45" in="SourceAlpha" result="shadowOffsetOuter1"></feOffset>
            <feGaussianBlur stdDeviation="14.17" in="shadowOffsetOuter1" result="shadowBlurOuter1"></feGaussianBlur>
            <feColorMatrix values="0 0 0 0 0.478431373   0 0 0 0 0.447058824   0 0 0 0 0.337254902  0 0 0 0.5 0" type="matrix" in="shadowBlurOuter1"></feColorMatrix>
        </filter>
    </defs>
    <g transform="translate(8.000000, 18.000000)">
        <use fill="black" fill-opacity="1" filter="url(#filter)" xlink:href="#path"></use>
        <path id="path" fill="#DFE2A8" d="M42.6389,4.5669 C48.665,2.7304 58.3062,1.068 67.6239,0.2591 C68.4898,0.1839 73.0063,0.0929 77.6606,0.0566 C91.556,-0.0517 103.733,1.738 112.243,5.1392 C125.113,10.2827 131.248,19.5632 133.777,37.7095 C134.689,44.2555 134.388,56.2576 133.175,60.6895 C131.566,66.5653 128.562,72.1023 124.828,76.071 L122.956,78.0615 L126.872,88.477 C127.618,90.459 128.311,92.331 128.897,93.938 C130.145,97.359 128.978,98.402 125.784,96.651 C123.989,95.666 121.821,94.455 119.485,93.133 L108.371,86.841 L104.922,88.025 C96.719,90.839 89.7481,91.978 78.9253,92.275 C70.1736,92.515 65.8342,92.21 57.9807,90.801 C40.6796,87.697 30.509,81.1433 24.5723,69.2725 C20.2261,60.5821 18.5372,44.3592 20.2262,29.4124 C22.8401,16.4539 30.1221,8.3817 42.6389,4.5669 Z"></path>
        <path fill="#AD428A" d="M112.75,3.0507 C111.103,3.0507 110.053,4.2979 110.053,5.745 L110.053,6.4643 C110.053,9.6673 112.651,12.447 115.898,12.447 L121.994,12.447 C122.926,12.4144 122.926,13.828 121.994,13.7944 L104.907,13.7944 C101.659,13.7944 99.061,16.5742 99.061,19.7736 C99.061,22.9766 101.659,25.7599 104.907,25.7599 L127.563,25.7599 C128.432,25.7599 128.36,27.1207 127.492,27.1073 L100.327,27.1073 C97.08,27.1073 94.481,29.8862 94.481,33.09 C94.481,36.2885 97.079,39.0692 100.327,39.0692 L114.764,39.0692 C115.43,39.0692 115.551,39.2025 115.551,39.8525 L115.551,42.2923 C115.551,43.9547 116.946,44.9903 118.17,44.9903 C119.677,44.9903 120.876,43.8031 120.869,42.296 C120.862,41.2865 120.863,41.1744 120.865,40.9341 C120.867,40.7538 120.869,40.5015 120.869,39.7444 C120.869,36.5414 118.27,33.7626 115.024,33.7626 L100.811,33.7626 C99.884,33.7961 99.884,32.3816 100.811,32.4151 L127.983,32.4147 C131.226,32.4147 133.824,29.635 133.824,26.432 C133.824,23.2325 131.226,20.4488 127.983,20.4488 L105.393,20.4488 C104.466,20.4824 104.466,19.0687 105.393,19.1014 L122.486,19.1009 C125.73,19.1009 128.327,16.3212 128.327,13.1182 C128.327,9.9264 125.744,7.139 122.511,7.139 L116.159,7.139 C115.462,7.139 115.372,7.0129 115.372,6.3566 L115.372,5.7451 C115.373,4.2716 114.23,3.0507 112.752,3.0507 L112.75,3.0507 Z M126.909,37.1278 C127.152,37.6432 126.932,38.2587 126.417,38.5025 L124.184,39.5588 C123.668,39.8026 123.053,39.5824 122.809,39.067 C122.565,38.5515 122.785,37.936 123.301,37.6922 L125.534,36.636 C126.049,36.3922 126.665,36.6124 126.909,37.1278 Z M124.266,47.7899 C124.622,48.2355 124.549,48.8851 124.103,49.2409 C123.658,49.5967 123.008,49.5239 122.652,49.0784 L121.111,47.1481 C120.755,46.7025 120.828,46.0529 121.274,45.6971 C121.719,45.3413 122.369,45.4141 122.725,45.8597 L124.266,47.7899 Z M127.873,43.8938 C127.744,44.4493 127.189,44.7953 126.634,44.6667 L124.124,44.0854 C123.568,43.9567 123.222,43.4021 123.351,42.8467 C123.479,42.2912 124.034,41.9451 124.589,42.0738 L127.1,42.6551 C127.655,42.7837 128.001,43.3383 127.873,43.8938 Z M100.674,8.8934 C100.61,8.3269 101.017,7.8154 101.584,7.7509 C102.15,7.6865 102.662,8.0935 102.726,8.66 L103.005,11.1143 C103.07,11.6809 102.663,12.1924 102.096,12.2568 C101.53,12.3213 101.018,11.9143 100.954,11.3477 L100.674,8.8934 Z M92.768,16.5188 C92.835,15.9526 93.349,15.5484 93.915,15.6159 L96.368,15.9085 C96.934,15.9761 97.338,16.4898 97.271,17.056 C97.203,17.6221 96.689,18.0264 96.123,17.9588 L93.67,17.6662 C93.104,17.5987 92.7,17.085 92.768,16.5188 Z M95.55,12.1867 C95.148,11.7824 95.15,11.1287 95.554,10.7266 C95.959,10.3245 96.612,10.3263 97.014,10.7306 L98.832,12.5576 C99.234,12.9618 99.232,13.6155 98.828,14.0176 C98.423,14.4197 97.77,14.4179 97.367,14.0136 L95.55,12.1867 Z"></path>
        <path fill="#542D6D" d="M14.2794,13.6316 C14.6346,13.6316 14.9435,13.7629 15.206,14.0255 C15.4686,14.288 15.5999,14.5969 15.5999,14.9522 L15.5999,34.7832 C15.5999,35.1385 15.4686,35.4474 15.206,35.71 C14.9435,35.9726 14.6346,36.1038 14.2794,36.1038 L12.158,36.1038 C11.8028,36.1038 11.4939,35.9726 11.2313,35.71 C10.9688,35.4474 10.8375,35.1385 10.8375,34.7832 L10.8375,18.0633 C10.8375,17.9243 10.7757,17.8548 10.6522,17.8548 L4.9709,17.8548 C4.8319,17.8548 4.7624,17.9243 4.7624,18.0633 L4.7624,34.7832 C4.7624,35.1385 4.6311,35.4474 4.3685,35.71 C4.106,35.9726 3.7971,36.1038 3.4419,36.1038 L1.3205,36.1038 C0.96527,36.1038 0.65639,35.9726 0.39383,35.71 C0.13128,35.4474 0,35.1385 0,34.7832 L0,14.9522 C0,14.5969 0.13128,14.288 0.39383,14.0255 C0.65639,13.7629 0.96527,13.6316 1.3205,13.6316 L14.2794,13.6316 Z M24.5326,27.5315 C25.5364,27.5315 26.3087,27.2998 26.8492,26.8365 C27.3898,26.3731 27.66,25.7167 27.66,24.8672 C27.66,23.2454 26.6175,22.4345 24.5326,22.4345 C24.2391,22.4345 23.9534,22.4576 23.6754,22.504 C23.5518,22.5349 23.4901,22.6198 23.4901,22.7588 L23.4901,27.2535 C23.4901,27.3771 23.5518,27.4543 23.6754,27.4852 C24.0461,27.5161 24.3318,27.5315 24.5326,27.5315 Z M24.0692,18.9592 C29.3203,18.9592 31.9458,20.8513 31.9458,24.6355 C31.9458,26.6897 31.3512,28.2497 30.162,29.3155 C28.9883,30.3658 27.2662,30.8909 24.9959,30.8909 C24.6561,30.8909 24.2237,30.8755 23.6986,30.8446 C23.5596,30.8446 23.4901,30.8987 23.4901,31.0068 L23.4901,34.7832 C23.4901,35.1385 23.3588,35.4474 23.0962,35.71 C22.8337,35.9726 22.5248,36.1038 22.1696,36.1038 L20.2931,36.1038 C19.9379,36.1038 19.629,35.9726 19.3664,35.71 C19.1039,35.4474 18.9726,35.1385 18.9726,34.7832 L18.9726,20.6273 C18.9726,20.2566 19.0961,19.9245 19.3433,19.6311 C19.5904,19.3376 19.8993,19.1754 20.2699,19.1445 C21.5827,19.021 22.8491,18.9592 24.0692,18.9592 Z M47.2184,19.5847 C46.9558,19.3222 46.6469,19.1909 46.2917,19.1909 L44.5311,19.1909 C43.6507,19.1909 43.0175,19.5847 42.6314,20.3725 L38.6236,28.4351 C38.6236,28.4505 38.6159,28.4583 38.6004,28.4583 C38.585,28.4583 38.5773,28.4505 38.5773,28.4351 L38.5773,20.5115 C38.5773,20.1562 38.446,19.8473 38.1834,19.5847 C37.9209,19.3222 37.612,19.1909 37.2568,19.1909 L35.4961,19.1909 C35.1409,19.1909 34.832,19.3222 34.5695,19.5847 C34.3069,19.8473 34.1756,20.1562 34.1756,20.5115 L34.1756,34.7832 C34.1756,35.1385 34.3069,35.4474 34.5695,35.71 C34.832,35.9726 35.1409,36.1038 35.4961,36.1038 L37.2568,36.1038 C38.1371,36.1038 38.7703,35.71 39.1564,34.9223 L43.1642,26.8596 C43.1642,26.8442 43.172,26.8365 43.1874,26.8365 C43.2029,26.8365 43.2106,26.8442 43.2106,26.8596 L43.2106,34.7832 C43.2106,35.1385 43.3419,35.4474 43.6044,35.71 C43.867,35.9726 44.1758,36.1038 44.5311,36.1038 L46.2917,36.1038 C46.6469,36.1038 46.9558,35.9726 47.2184,35.71 C47.4809,35.4474 47.6122,35.1385 47.6122,34.7832 L47.6122,20.5115 C47.6122,20.1562 47.4809,19.8473 47.2184,19.5847 Z M56.5449,32.8603 C57.4716,32.8603 58.1434,32.6904 58.5604,32.3506 C58.9928,32.0108 59.209,31.4856 59.209,30.7751 C59.209,29.6167 58.3596,29.0375 56.6607,29.0375 L55.7109,29.0375 C55.5719,29.0375 55.5024,29.107 55.5024,29.246 L55.5024,32.5359 C55.5024,32.6749 55.5642,32.7599 55.6877,32.7908 C55.9657,32.8371 56.2515,32.8603 56.5449,32.8603 Z M55.5024,22.7588 L55.5024,25.5854 C55.5024,25.7244 55.5719,25.7939 55.7109,25.7939 L56.1974,25.7939 C57.9735,25.7939 58.8616,25.2147 58.8616,24.0563 C58.8616,22.9751 58.0893,22.4345 56.5449,22.4345 C56.2515,22.4345 55.9657,22.4576 55.6877,22.504 C55.5642,22.5349 55.5024,22.6198 55.5024,22.7588 Z M59.5797,27.2072 C60.7689,27.3616 61.7188,27.8173 62.4292,28.5741 C63.1396,29.3309 63.4949,30.2191 63.4949,31.2385 C63.4949,32.9838 62.9234,34.2735 61.7805,35.1076 C60.6531,35.9262 58.8307,36.3355 56.3132,36.3355 C55.0314,36.3355 53.6954,36.2738 52.3054,36.1502 C51.9348,36.1193 51.6181,35.9648 51.3556,35.6868 C51.1085,35.3934 50.9849,35.0535 50.9849,34.6674 L50.9849,20.6273 C50.9849,20.2566 51.1085,19.9245 51.3556,19.6311 C51.6027,19.3376 51.9116,19.1754 52.2823,19.1445 C53.595,19.021 54.8615,18.9592 56.0816,18.9592 C60.7149,18.9592 63.0315,20.4265 63.0315,23.3612 C63.0315,24.3497 62.7149,25.1915 62.0817,25.8866 C61.4639,26.5662 60.6299,26.9909 59.5797,27.1608 C59.5643,27.1608 59.5566,27.1686 59.5566,27.184 C59.5566,27.1994 59.5643,27.2072 59.5797,27.2072 Z M70.7605,19.848 C70.4979,19.5854 70.189,19.4542 69.8338,19.4542 L67.3782,19.4542 C67.0229,19.4542 66.714,19.5854 66.4515,19.848 C66.1889,20.1106 66.0577,20.4195 66.0577,20.7748 L66.0577,34.7832 C66.0577,35.1385 66.1889,35.4474 66.4515,35.71 C66.714,35.9726 67.0229,36.1038 67.3782,36.1038 L69.8338,36.1038 C70.189,36.1038 70.4979,35.9726 70.7605,35.71 C71.023,35.4474 71.1543,35.1385 71.1543,34.7832 L71.1543,20.7748 C71.1543,20.4195 71.023,20.1106 70.7605,19.848 Z M86.2992,19.1909 C86.6545,19.1909 86.9633,19.3222 87.2259,19.5847 C87.4885,19.8473 87.6197,20.1562 87.6197,20.5115 L87.6197,21.6931 C87.6197,22.0483 87.4885,22.3572 87.2259,22.6198 C86.9633,22.8824 86.6545,23.0137 86.2992,23.0137 L83.4729,23.0137 C83.3339,23.0137 83.2644,23.0832 83.2644,23.2222 L83.2644,34.7832 C83.2644,35.1385 83.1331,35.4474 82.8706,35.71 C82.6235,35.9726 82.3223,36.1038 81.9671,36.1038 L79.8358,36.1038 C79.4806,36.1038 79.1717,35.9726 78.9091,35.71 C78.662,35.4474 78.5385,35.1385 78.5385,34.7832 L78.5385,23.2222 C78.5385,23.0832 78.469,23.0137 78.33,23.0137 L75.5036,23.0137 C75.1484,23.0137 74.8395,22.8824 74.577,22.6198 C74.3144,22.3572 74.1831,22.0483 74.1831,21.6931 L74.1831,20.5115 C74.1831,20.1562 74.3144,19.8473 74.577,19.5847 C74.8395,19.3222 75.1484,19.1909 75.5036,19.1909 L86.2992,19.1909 Z M109.655,62.7977 C109.239,62.7977 108.883,62.6346 108.588,62.3082 C108.31,61.9614 108.154,61.5433 108.119,61.0537 L107.599,49.6423 C107.581,49.1731 107.711,48.7651 107.989,48.4184 C108.267,48.0716 108.605,47.8982 109.004,47.8982 L111.71,47.8982 C112.109,47.8982 112.448,48.0716 112.725,48.4184 C113.02,48.7651 113.151,49.1731 113.116,49.6423 L112.621,61.0537 C112.604,61.5433 112.439,61.9614 112.127,62.3082 C111.831,62.6346 111.476,62.7977 111.059,62.7977 L109.655,62.7977 Z M111.319,64.7948 C111.719,64.7948 112.066,64.9682 112.361,65.315 C112.656,65.6617 112.803,66.0697 112.803,66.5389 L112.803,67.1896 C112.803,67.6588 112.656,68.0668 112.361,68.4135 C112.066,68.7603 111.719,68.9337 111.319,68.9337 L109.395,68.9337 C108.996,68.9337 108.649,68.7603 108.354,68.4135 C108.058,68.0668 107.911,67.6588 107.911,67.1896 L107.911,66.5389 C107.911,66.0697 108.058,65.6617 108.354,65.315 C108.649,64.9682 108.996,64.7948 109.395,64.7948 L111.319,64.7948 Z M66.5688,17.1259 C66.9216,17.4635 67.3366,17.6322 67.8138,17.6322 L69.5568,17.6322 C70.034,17.6322 70.449,17.4635 70.8018,17.1259 C71.1545,16.7884 71.3309,16.3913 71.3309,15.9347 L71.3309,15.4582 C71.3309,15.0015 71.1545,14.6045 70.8018,14.2669 C70.449,13.9294 70.034,13.7607 69.5568,13.7607 L67.8138,13.7607 C67.3366,13.7607 66.9216,13.9294 66.5688,14.2669 C66.2161,14.6045 66.0397,15.0015 66.0397,15.4582 L66.0397,15.9347 C66.0397,16.3913 66.2161,16.7884 66.5688,17.1259 Z M89.3904,34.7962 C89.567,34.7962 89.7082,34.8693 89.8141,35.0156 C89.92,35.1618 89.942,35.3167 89.8803,35.4802 L88.8212,38.2419 C88.7418,38.4484 88.605,38.6118 88.4109,38.7323 C88.2255,38.8613 88.0225,38.9259 87.8019,38.9259 L87.193,38.9259 C86.9988,38.9259 86.8356,38.8527 86.7032,38.7065 C86.5796,38.5602 86.5355,38.3925 86.5708,38.2032 L87.1003,35.5189 C87.1356,35.3124 87.2371,35.1403 87.4048,35.0027 C87.5725,34.865 87.7666,34.7962 87.9872,34.7962 L89.3904,34.7962 Z M78.613,46.1184 C78.0153,46.1184 77.4956,45.907 77.0538,45.4843 C76.612,45.0616 76.3911,44.5642 76.3911,43.9923 L76.3911,43.3956 C76.3911,42.8237 76.612,42.3263 77.0538,41.9036 C77.4956,41.4809 78.0153,41.2695 78.613,41.2695 L80.7959,41.2695 C81.3936,41.2695 81.9134,41.4809 82.3551,41.9036 C82.7969,42.3263 83.0178,42.8237 83.0178,43.3956 L83.0178,43.9923 C83.0178,44.5642 82.7969,45.0616 82.3551,45.4843 C81.9134,45.907 81.3936,46.1184 80.7959,46.1184 L78.613,46.1184 Z M32.4762,67.3498 L26.8744,55.8124 C26.8002,55.6145 26.8002,55.4167 26.8744,55.2188 L32.2907,44.0524 C32.5133,43.6072 32.4886,43.1868 32.2165,42.7911 C31.9692,42.3706 31.5982,42.1604 31.1036,42.1604 L27.7277,42.1604 C27.1094,42.1604 26.5282,42.3459 25.9841,42.7169 C25.44,43.0631 25.0319,43.5207 24.7599,44.0895 L21.0872,52.251 C21.013,52.4489 20.8646,52.5478 20.642,52.5478 L20.1968,52.5478 C19.9742,52.5478 19.8629,52.4365 19.8629,52.2139 L19.8629,44.275 C19.8629,43.7062 19.6527,43.2115 19.2323,42.7911 C18.8366,42.3706 18.3419,42.1604 17.7484,42.1604 L14.9289,42.1604 C14.3601,42.1604 13.8655,42.3706 13.445,42.7911 C13.0246,43.2115 12.8144,43.7062 12.8144,44.275 L12.8144,52.2139 C12.8144,52.4365 12.7031,52.5478 12.4805,52.5478 L12.0353,52.5478 C11.8375,52.5478 11.6891,52.4489 11.5901,52.251 L7.9175,44.0895 C7.6701,43.5207 7.2744,43.0631 6.7303,42.7169 C6.1862,42.3459 5.5927,42.1604 4.9496,42.1604 L1.5737,42.1604 C1.1038,42.1604 0.73286,42.3706 0.46081,42.7911 C0.21349,43.1868 0.18875,43.6072 0.38661,44.0524 L5.8029,55.2188 C5.9018,55.4167 5.9018,55.6145 5.8029,55.8124 L0.20112,67.3498 C0.00327,67.795 0.028,68.2278 0.27532,68.6482 C0.54737,69.0439 0.91834,69.2418 1.3882,69.2418 L4.9496,69.2418 C5.5927,69.2418 6.1739,69.0687 6.6932,68.7224 C7.2373,68.3762 7.633,67.9063 7.8804,67.3127 L11.5901,58.7802 C11.6891,58.5824 11.8375,58.4834 12.0353,58.4834 L12.4805,58.4834 C12.7031,58.4834 12.8144,58.5947 12.8144,58.8173 L12.8144,67.1272 C12.8144,67.6961 13.0246,68.1907 13.445,68.6111 C13.8655,69.0316 14.3601,69.2418 14.9289,69.2418 L17.7484,69.2418 C18.3419,69.2418 18.8366,69.0316 19.2323,68.6111 C19.6527,68.1907 19.8629,67.6961 19.8629,67.1272 L19.8629,58.8173 C19.8629,58.5947 19.9742,58.4834 20.1968,58.4834 L20.642,58.4834 C20.8646,58.4834 21.013,58.5824 21.0872,58.7802 L24.797,67.3127 C25.069,67.9063 25.4647,68.3762 25.9841,68.7224 C26.5282,69.0687 27.1094,69.2418 27.7277,69.2418 L31.2891,69.2418 C31.7837,69.2418 32.1547,69.0439 32.402,68.6482 C32.6741,68.2278 32.6988,67.795 32.4762,67.3498 Z M52.2469,48.669 C51.9198,48.342 51.5351,48.1785 51.0927,48.1785 L48.8998,48.1785 C47.8034,48.1785 47.0147,48.669 46.5338,49.65 L41.5421,59.6912 C41.5421,59.7104 41.5325,59.72 41.5132,59.72 C41.494,59.72 41.4844,59.7104 41.4844,59.6912 L41.4844,49.8232 C41.4844,49.3807 41.3209,48.996 40.9939,48.669 C40.6669,48.342 40.2821,48.1785 39.8397,48.1785 L37.6468,48.1785 C37.2044,48.1785 36.8197,48.342 36.4927,48.669 C36.1657,48.996 36.0021,49.3807 36.0021,49.8232 L36.0021,67.5971 C36.0021,68.0396 36.1657,68.4243 36.4927,68.7513 C36.8197,69.0783 37.2044,69.2418 37.6468,69.2418 L39.8397,69.2418 C40.9362,69.2418 41.7248,68.7513 42.2057,67.7703 L47.1974,57.7291 C47.1974,57.7099 47.2071,57.7003 47.2263,57.7003 C47.2455,57.7003 47.2551,57.7099 47.2551,57.7291 L47.2551,67.5971 C47.2551,68.0396 47.4186,68.4243 47.7457,68.7513 C48.0727,69.0783 48.4574,69.2418 48.8998,69.2418 L51.0927,69.2418 C51.5351,69.2418 51.9198,69.0783 52.2469,68.7513 C52.5739,68.4243 52.7374,68.0396 52.7374,67.5971 L52.7374,49.8232 C52.7374,49.3807 52.5739,48.996 52.2469,48.669 Z M64.2253,65.2023 C65.3795,65.2023 66.2162,64.9907 66.7356,64.5675 C67.2742,64.1443 67.5435,63.4903 67.5435,62.6054 C67.5435,61.1627 66.4855,60.4414 64.3696,60.4414 L63.1866,60.4414 C63.0135,60.4414 62.9269,60.5279 62.9269,60.7011 L62.9269,64.7983 C62.9269,64.9714 63.0038,65.0772 63.1577,65.1157 C63.504,65.1734 63.8598,65.2023 64.2253,65.2023 Z M62.9269,52.622 L62.9269,56.1422 C62.9269,56.3153 63.0135,56.4018 63.1866,56.4018 L63.7925,56.4018 C66.0046,56.4018 67.1107,55.6805 67.1107,54.2378 C67.1107,52.8913 66.1489,52.218 64.2253,52.218 C63.8598,52.218 63.504,52.2469 63.1577,52.3046 C63.0038,52.3431 62.9269,52.4489 62.9269,52.622 Z M68.0052,58.1619 C69.4863,58.3543 70.6693,58.9217 71.5542,59.8643 C72.439,60.8069 72.8815,61.9129 72.8815,63.1825 C72.8815,65.3562 72.1697,66.9623 70.7463,68.0011 C69.3421,69.0206 67.0722,69.5303 63.9368,69.5303 C62.3402,69.5303 60.6763,69.4534 58.9451,69.2995 C58.4834,69.261 58.0891,69.0687 57.7621,68.7224 C57.4543,68.357 57.3004,67.9338 57.3004,67.4529 L57.3004,49.9674 C57.3004,49.5058 57.4543,49.0922 57.7621,48.7267 C58.0698,48.3612 58.4546,48.1593 58.9162,48.1208 C60.5513,47.9669 62.1286,47.89 63.6483,47.89 C69.419,47.89 72.3044,49.7174 72.3044,53.3722 C72.3044,54.6033 71.9101,55.6516 71.1214,56.5173 C70.352,57.3636 69.3132,57.8926 68.0052,58.1042 C67.9859,58.1042 67.9763,58.1138 67.9763,58.1331 C67.9763,58.1523 67.9859,58.1619 68.0052,58.1619 Z M82.4742,48.669 C82.1472,48.342 81.7625,48.1785 81.3201,48.1785 L78.2616,48.1785 C77.8191,48.1785 77.4344,48.342 77.1074,48.669 C76.7804,48.996 76.6169,49.3807 76.6169,49.8232 L76.6169,67.5971 C76.6169,68.0396 76.7804,68.4243 77.1074,68.7513 C77.4344,69.0783 77.8191,69.2418 78.2616,69.2418 L81.3201,69.2418 C81.7625,69.2418 82.1472,69.0783 82.4742,68.7513 C82.8012,68.4243 82.9647,68.0396 82.9647,67.5971 L82.9647,49.8232 C82.9647,49.3807 82.8012,48.996 82.4742,48.669 Z M102.19,48.1785 C102.632,48.1785 103.017,48.342 103.344,48.669 C103.671,48.996 103.835,49.3807 103.835,49.8232 L103.835,51.2947 C103.835,51.7371 103.671,52.1219 103.344,52.4489 C103.017,52.7759 102.632,52.9394 102.19,52.9394 L98.67,52.9394 C98.497,52.9394 98.41,53.0259 98.41,53.1991 L98.41,67.5971 C98.41,68.0396 98.247,68.4243 97.92,68.7513 C97.612,69.0783 97.237,69.2418 96.794,69.2418 L94.14,69.2418 C93.697,69.2418 93.313,69.0783 92.986,68.7513 C92.678,68.4243 92.524,68.0396 92.524,67.5971 L92.524,53.1991 C92.524,53.0259 92.437,52.9394 92.264,52.9394 L88.7442,52.9394 C88.3017,52.9394 87.917,52.7759 87.59,52.4489 C87.263,52.1219 87.0995,51.7371 87.0995,51.2947 L87.0995,49.8232 C87.0995,49.3807 87.263,48.996 87.59,48.669 C87.917,48.342 88.3017,48.1785 88.7442,48.1785 L102.19,48.1785 Z"></path>
    </g>
</svg>
